<?xml version="1.0" encoding="UTF-8"?>
<svg version="1.1" xmlns="http://www.w3.org/2000/svg" width="483" height="203">
<path d="M0 0 C159.39 0 318.78 0 483 0 C483 66.99 483 133.98 483 203 C323.61 203 164.22 203 0 203 C0 136.01 0 69.02 0 0 Z " fill="#FEFEFE" transform="translate(0,0)"/>
<path d="M0 0 C1.47695934 2.95391868 0.40599999 4.7846845 -0.4375 7.9375 C-2.70736048 17.52370145 -3.49541355 25.09421275 1.52734375 33.89453125 C3.72162306 37.03171042 5.44522804 38.52443428 9 40 C14.04704711 40.60788523 18.59475007 40.79986601 23 38 C25.66093395 33.7622163 26.50528333 29.94716669 27 25 C30.92194188 28.51622375 33.66658147 31.94280858 34.25390625 37.328125 C34.38120007 42.86116308 33.57447724 47.72337356 32 53 C29.41799265 61.54059899 29.41799265 61.54059899 31.5 69.875 C34.55852778 72.47474861 36.19720726 72.6273348 40.1015625 72.3515625 C42.848988 71.84278 44.16392781 71.11854483 46 69 C47.82558737 64.77232398 48.45347878 60.55434348 49 56 C54.75125222 62.75146999 53.58041709 72.60882717 53 81 C50.85822681 90.13479166 43.69851811 97.38975648 36.2265625 102.68359375 C28.96475099 106.97698055 21.35223386 108.63764712 13 109 C15.87012201 106.74775148 18.81097766 104.95215718 22 103.1875 C27.84097972 99.71727087 30.99407955 95.51924145 33 89 C33.16798262 86.29113059 33.16798262 86.29113059 33 84 C32.21625 84.969375 31.4325 85.93875 30.625 86.9375 C28.63834625 89.39467701 27.40074513 90.84825261 24.125 91.203125 C23.073125 91.22632813 23.073125 91.22632813 22 91.25 C21.29875 91.27578125 20.5975 91.3015625 19.875 91.328125 C19.25625 91.21984375 18.6375 91.1115625 18 91 C15.51772873 87.2765931 15.18921895 83.76524252 14.5625 79.4375 C12.20425624 64.48516443 12.20425624 64.48516443 4 52 C3.01 51.34 2.02 50.68 1 50 C1.28875 50.72703125 1.5775 51.4540625 1.875 52.203125 C5.19270927 61.1885876 6.99471665 69.75132834 3.375 78.9375 C1.18702199 83.14515002 -0.90570899 85.55917266 -5 88 C-7.84496272 88.68848098 -10.15785465 88.7091181 -13 88 C-17.16387113 85.25027378 -19.72367045 82.42619634 -22 78 C-20.51561966 87.53128432 -17.86275137 94.98127701 -11 102 C-8.90490781 103.44354583 -6.78320772 104.75783515 -4.57421875 106.01953125 C-4.05472656 106.34308594 -3.53523438 106.66664063 -3 107 C-3 107.33 -3 107.66 -3 108 C-13.05663732 107.61320626 -22.08070104 102.70395669 -29.3203125 95.83984375 C-37.33308249 87.06306546 -39.56806184 77.08227084 -39.2890625 65.40234375 C-38.63446232 57.69752272 -36.09021918 51.48793387 -32 45 C-31.67 45 -31.34 45 -31 45 C-30.96261719 45.66386719 -30.92523438 46.32773438 -30.88671875 47.01171875 C-30.39055034 53.98566329 -30.39055034 53.98566329 -27 60 C-24.52756353 61.23621824 -23.22682061 60.98408601 -20.5 60.6875 C-19.7059375 60.60886719 -18.911875 60.53023437 -18.09375 60.44921875 C-15.79145091 60.1534758 -15.79145091 60.1534758 -14 58 C-12.57082571 52.82217183 -13.41461091 48.57051362 -14.4375 43.4375 C-16.44828082 32.27192624 -17.95994251 22.18156845 -12 12 C-11.4225 10.948125 -10.845 9.89625 -10.25 8.8125 C-7.31233761 5.14042202 -3.86056887 2.64242821 0 0 Z " fill="#050505" transform="translate(96,41)"/>
<path d="M0 0 C2.125 0.1875 2.125 0.1875 4 1 C6.13399766 5.26799532 4.46349087 10.52324988 3.09765625 14.875 C-0.33349082 23.74746111 -5.11197296 32.25047431 -12.8125 38.0625 C-17.09010126 41.45137588 -18.13196314 45.75962934 -19 51 C-19.19354957 53.72728944 -19.15213629 56.26154671 -19 59 C-18.57589844 58.05898437 -18.15179688 57.11796875 -17.71484375 56.1484375 C-11.06963285 41.84716253 -11.06963285 41.84716253 -5 39 C-1.91097029 38.2919784 -0.24067409 38.45988765 3 39 C5 40.5 5 40.5 6 43 C6.54770539 48.47705394 5.78048877 52.08308771 3.66796875 57.1015625 C2.73044235 59.76611122 2.7906782 62.20904272 3 65 C7.20381606 64.89990914 8.79815533 64.1846664 11.9375 61.3125 C14.70243655 57.83472825 16.54327421 53.99226734 18.4375 50 C21.79241576 42.94559955 25.42568449 38.35752725 31.9375 34.0625 C35.93624989 32.67517861 38.77747901 32.64812325 43 33 C45 35 45 35 45.5625 38.625 C45.43271925 43.38362751 43.30066749 45.91792806 40.05859375 49.23828125 C34.52986795 53.96969555 29.1616736 55.48845189 22 56 C22.30798326 57.48011371 22.621518 58.95907325 22.9375 60.4375 C23.11152344 61.26121094 23.28554688 62.08492187 23.46484375 62.93359375 C23.80752994 64.97661204 23.80752994 64.97661204 25 66 C30.16982383 66.91164304 34.20720402 66.31609447 38.6875 63.5625 C46.2611328 57.92199725 49.54531653 51.16450586 51 42 C52.9914056 41.61866701 54.99279077 41.28674418 57 41 C57.33 41.33 57.66 41.66 58 42 C57.69699525 44.33746522 57.36141955 46.67085177 57 49 C57 49.99 57 50.98 57 52 C57.44730469 51.46890625 57.89460937 50.9378125 58.35546875 50.390625 C67.74010896 39.42520318 67.74010896 39.42520318 73.875 38.625 C77 39 77 39 79.375 41 C81.4024917 44.74306161 81.70864837 47.87029056 81 52 C80.03238392 54.01586684 79.03432904 56.01753602 78 58 C77.74803177 61.25100364 77.74803177 61.25100364 78 64 C80.24224658 64.58963678 80.24224658 64.58963678 83 64 C86.78051649 60.65424291 89.59485826 56.40942652 92 52 C93 55 93 55 91.99609375 57.12109375 C88.85647908 61.78723787 86.20985567 65.50361082 81 68 C77.32089734 68.58865643 75.73717228 68.45364448 72.5625 66.5 C70.55656151 63.29049842 70.90992979 61.5266657 71.54296875 57.90234375 C72 56 72 56 73 53 C73.03954234 50.66700175 73.04401732 48.33291811 73 46 C69.98776539 45.47285894 67.82790055 45.52617012 65.13671875 47.06640625 C58.44666986 52.41576398 54.34316242 59.75134235 50 67 C48.35 66.67 46.7 66.34 45 66 C44.67 65.01 44.34 64.02 44 63 C43.38511719 63.42152344 42.77023437 63.84304687 42.13671875 64.27734375 C41.32847656 64.82519531 40.52023437 65.37304688 39.6875 65.9375 C38.48673828 66.75541016 38.48673828 66.75541016 37.26171875 67.58984375 C32.50462557 70.55583794 27.45595638 70.79311826 22 70 C18.84164831 67.56543724 17.20018505 65.30027757 15 62 C14.071875 62.804375 13.14375 63.60875 12.1875 64.4375 C8.04824175 68.02485715 4.43087636 68.38791974 -1 68 C-2.734375 66.765625 -2.734375 66.765625 -4 65 C-4.109375 62.84375 -4.109375 62.84375 -3.75 60.5 C-3.64171875 59.7265625 -3.5334375 58.953125 -3.421875 58.15625 C-3 56 -3 56 -2 53 C-1.96045766 50.66700175 -1.95598268 48.33291811 -2 46 C-3.65 45.67 -5.3 45.34 -7 45 C-11.02022353 49.45359625 -13.27920379 54.41618449 -15.75 59.8125 C-16.36681641 61.13797852 -16.36681641 61.13797852 -16.99609375 62.49023438 C-18.00353459 64.65740363 -19.00460698 66.82727753 -20 69 C-21.32 69 -22.64 69 -24 69 C-25.88391785 65.73454239 -26.49287967 62.71888239 -27 59 C-27.42410156 59.53109375 -27.84820312 60.0621875 -28.28515625 60.609375 C-32.69373104 65.9190431 -36.40104602 70.17695329 -43.48828125 71.4453125 C-49.7869111 71.87455246 -49.7869111 71.87455246 -52.6796875 69.7890625 C-54.95691831 67.13453901 -56.47925915 64.12294996 -58 61 C-58.62648438 61.56589844 -59.25296875 62.13179687 -59.8984375 62.71484375 C-60.71570313 63.44832031 -61.53296875 64.18179688 -62.375 64.9375 C-63.18710937 65.66839844 -63.99921875 66.39929688 -64.8359375 67.15234375 C-68.0085437 69.86108515 -69.83279232 70.17767035 -73.9375 70.25 C-74.81277344 70.27578125 -75.68804687 70.3015625 -76.58984375 70.328125 C-79 70 -79 70 -80.7421875 68.68359375 C-82.50866583 66.31914605 -83.18715621 63.81369006 -84 61 C-84.72316406 61.63228516 -84.72316406 61.63228516 -85.4609375 62.27734375 C-86.09257812 62.82519531 -86.72421875 63.37304688 -87.375 63.9375 C-88.00148437 64.48277344 -88.62796875 65.02804688 -89.2734375 65.58984375 C-92.69342125 68.38308839 -95.57773554 68.34538973 -99.8671875 68.26953125 C-102 68 -102 68 -104.0625 66.5 C-106.65922945 59.57538813 -104.64532296 52.6083536 -102 46 C-100.31094438 42.39767785 -98.56465065 39.05666996 -96 36 C-92.625 34.875 -92.625 34.875 -90 35 C-90.29048143 40.51914718 -92.72974797 44.19967771 -95.625 48.73046875 C-97.80323673 52.32579698 -98.11596903 55.07038462 -98.0625 59.1875 C-98.04896484 60.53908203 -98.04896484 60.53908203 -98.03515625 61.91796875 C-98.02355469 62.60503906 -98.01195312 63.29210937 -98 64 C-95.0641413 64.42963786 -92.85374094 64.44614849 -90.18359375 63.05078125 C-84.55589891 58.80873914 -82.99384627 53.54461575 -81 47 C-80.42923783 45.43286421 -79.84742141 43.86966784 -79.25 42.3125 C-78.8375 41.219375 -78.425 40.12625 -78 39 C-79.485 38.505 -79.485 38.505 -81 38 C-80.3805249 37.74565186 -79.7610498 37.49130371 -79.12280273 37.22924805 C-76.65800415 35.801961 -76.14283902 34.90988241 -75.03515625 32.33203125 C-74.70966797 31.60306641 -74.38417969 30.87410156 -74.04882812 30.12304688 C-73.5605957 28.97932617 -73.5605957 28.97932617 -73.0625 27.8125 C-70.55692431 22.02306359 -67.9745409 16.93612338 -64 12 C-61.1875 11.0625 -61.1875 11.0625 -59 11 C-59.4664659 17.05413183 -62.20526903 21.65573903 -65.0625 26.875 C-65.53494141 27.75414063 -66.00738281 28.63328125 -66.49414062 29.5390625 C-67.65511764 31.69683797 -68.82652992 33.84899313 -70 36 C-65.05 36.33 -60.1 36.66 -55 37 C-55 37.66 -55 38.32 -55 39 C-63.415 39.495 -63.415 39.495 -72 40 C-75.52132285 49.02338982 -76.51424733 56.34357787 -76 66 C-70.17537794 66.17191919 -67.56062188 65.78434581 -63 62 C-59.41337876 58.54754165 -56.93544543 55.18508872 -55.0625 50.5625 C-52.58151532 44.51509984 -48.57879879 40.11593747 -43.5625 36 C-39.78108784 34.52432696 -37.05879503 34.60721338 -33 35 C-31.2421875 36.234375 -31.2421875 36.234375 -30 38 C-29.890625 40.2265625 -29.890625 40.2265625 -30.25 42.625 C-30.35828125 43.42164063 -30.4665625 44.21828125 -30.578125 45.0390625 C-31 47 -31 47 -32 48 C-33.65 48 -35.3 48 -37 48 C-36.01 44.7 -35.02 41.4 -34 38 C-38.8394891 38.77431826 -41.22307747 39.75554284 -44.25 43.6875 C-48.56421258 50.0896069 -50.64199361 55.29607671 -50 63 C-48.40168053 66.14720897 -48.40168053 66.14720897 -46.046875 66.43359375 C-39.65957878 66.4444565 -36.28780092 65.1082755 -31.546875 60.6262207 C-26.79688193 55.5848218 -25.10952985 50.30809749 -23.1875 43.75 C-18.6842238 29.40163789 -13.54118218 14.14197495 -3 3 C-2.2265625 2.14341797 -2.2265625 2.14341797 -1.4375 1.26953125 C-0.963125 0.85058594 -0.48875 0.43164062 0 0 Z " fill="#111111" transform="translate(330,64)"/>
<path d="M0 0 C-0.4664659 6.05413183 -3.20526903 10.65573903 -6.0625 15.875 C-6.53494141 16.75414063 -7.00738281 17.63328125 -7.49414062 18.5390625 C-8.65511764 20.69683797 -9.82652992 22.84899313 -11 25 C-6.05 25.33 -1.1 25.66 4 26 C4 26.66 4 27.32 4 28 C-4.415 28.495 -4.415 28.495 -13 29 C-16.52132285 38.02338982 -17.51424733 45.34357787 -17 55 C-11.17537794 55.17191919 -8.56062188 54.78434581 -4 51 C-0.41337876 47.54754165 2.06455457 44.18508872 3.9375 39.5625 C6.41848468 33.51509984 10.42120121 29.11593747 15.4375 25 C19.21891216 23.52432696 21.94120497 23.60721338 26 24 C27.7578125 25.234375 27.7578125 25.234375 29 27 C29.109375 29.2265625 29.109375 29.2265625 28.75 31.625 C28.64171875 32.42164063 28.5334375 33.21828125 28.421875 34.0390625 C28 36 28 36 27 37 C25.35 37 23.7 37 22 37 C22.99 33.7 23.98 30.4 25 27 C20.1605109 27.77431826 17.77692253 28.75554284 14.75 32.6875 C10.43578742 39.0896069 8.35800639 44.29607671 9 52 C10.59831947 55.14720897 10.59831947 55.14720897 12.953125 55.43359375 C18.49720037 55.44302245 21.65583801 54.75177626 26 51 C26.91420526 49.93212491 27.8102886 48.84846649 28.6875 47.75 C29.8321875 46.38875 29.8321875 46.38875 31 45 C31.99 45 32.98 45 34 45 C34 47.97 34 50.94 34 54 C33.67 54 33.34 54 33 54 C32.505 51.03 32.505 51.03 32 48 C31.57589844 48.53109375 31.15179688 49.0621875 30.71484375 49.609375 C26.30626896 54.9190431 22.59895398 59.17695329 15.51171875 60.4453125 C9.2130889 60.87455246 9.2130889 60.87455246 6.3203125 58.7890625 C4.04308169 56.13453901 2.52074085 53.12294996 1 50 C0.37351562 50.56589844 -0.25296875 51.13179687 -0.8984375 51.71484375 C-1.71570313 52.44832031 -2.53296875 53.18179688 -3.375 53.9375 C-4.18710937 54.66839844 -4.99921875 55.39929688 -5.8359375 56.15234375 C-9.0085437 58.86108515 -10.83279232 59.17767035 -14.9375 59.25 C-15.81277344 59.27578125 -16.68804687 59.3015625 -17.58984375 59.328125 C-20 59 -20 59 -21.7421875 57.68359375 C-23.50866583 55.31914605 -24.18715621 52.81369006 -25 50 C-25.72316406 50.63228516 -25.72316406 50.63228516 -26.4609375 51.27734375 C-27.09257812 51.82519531 -27.72421875 52.37304688 -28.375 52.9375 C-29.00148437 53.48277344 -29.62796875 54.02804688 -30.2734375 54.58984375 C-33.69342125 57.38308839 -36.57773554 57.34538973 -40.8671875 57.26953125 C-43 57 -43 57 -45.0625 55.5 C-47.65922945 48.57538813 -45.64532296 41.6083536 -43 35 C-41.31094438 31.39767785 -39.56465065 28.05666996 -37 25 C-33.625 23.875 -33.625 23.875 -31 24 C-31.29048143 29.51914718 -33.72974797 33.19967771 -36.625 37.73046875 C-38.80323673 41.32579698 -39.11596903 44.07038462 -39.0625 48.1875 C-39.04896484 49.53908203 -39.04896484 49.53908203 -39.03515625 50.91796875 C-39.02355469 51.60503906 -39.01195312 52.29210937 -39 53 C-36.0641413 53.42963786 -33.85374094 53.44614849 -31.18359375 52.05078125 C-25.55589891 47.80873914 -23.99384627 42.54461575 -22 36 C-21.42923783 34.43286421 -20.84742141 32.86966784 -20.25 31.3125 C-19.8375 30.219375 -19.425 29.12625 -19 28 C-19.99 27.67 -20.98 27.34 -22 27 C-21.3805249 26.74565186 -20.7610498 26.49130371 -20.12280273 26.22924805 C-17.65800415 24.801961 -17.14283902 23.90988241 -16.03515625 21.33203125 C-15.70966797 20.60306641 -15.38417969 19.87410156 -15.04882812 19.12304688 C-14.5605957 17.97932617 -14.5605957 17.97932617 -14.0625 16.8125 C-6.7863183 0 -6.7863183 0 0 0 Z " fill="#0E0E0E" transform="translate(271,75)"/>
<path d="M0 0 C1 1 1 1 1.28125 3.84765625 C1.20318241 9.30262927 -0.7749342 14.31891674 -2.5 19.4375 C-2.83386719 20.45521484 -3.16773438 21.47292969 -3.51171875 22.52148438 C-4.33200798 25.01750733 -5.16161493 27.51000909 -6 30 C1.23164526 25.17890316 7.653309 19.54658054 13.8125 13.4375 C14.35116699 12.90793701 14.88983398 12.37837402 15.44482422 11.83276367 C18.18334343 9.07344021 20.58987993 6.28373209 22.82421875 3.09765625 C23.54222656 2.07542969 24.26023438 1.05320312 25 0 C25.33 0 25.66 0 26 0 C26.4677734 5.84716753 25.44815985 8.33936542 22 13 C13.97007442 22.38488638 4.20379759 29.17530043 -6 36 C0.41035861 48.77043989 8.90429029 61.93619353 21 70 C20.34 71.32 19.68 72.64 19 74 C16.8125 74.3125 16.8125 74.3125 14 74 C12.01949118 72.39418204 10.62124511 70.93574895 9 69 C8.42507812 68.36449219 7.85015625 67.72898437 7.2578125 67.07421875 C0.49166423 59.20755238 -4.16886374 50.12249741 -9 41 C-11.69720289 47.89552762 -13.77276533 54.88614579 -15.75 62.01757812 C-15.9975 62.87416016 -16.245 63.73074219 -16.5 64.61328125 C-16.7165625 65.38454346 -16.933125 66.15580566 -17.15625 66.95043945 C-18.13285828 69.32272721 -18.90648207 70.5068816 -21 72 C-22.66594766 72.04895086 -24.33418717 72.05334213 -26 72 C-24.00980713 65.20526367 -21.85996277 58.48316645 -19.56640625 51.78515625 C-19.08759254 50.38057411 -19.08759254 50.38057411 -18.59910583 48.94761658 C-17.92852071 46.9817865 -17.2570465 45.0162595 -16.5847168 43.05102539 C-15.56660181 40.07449195 -14.55163479 37.0968992 -13.53710938 34.11914062 C-12.88047624 32.19522104 -12.22358045 30.27139108 -11.56640625 28.34765625 C-11.25063629 27.42264313 -10.93486633 26.49763 -10.60952759 25.54458618 C-8.70831214 19.99771124 -6.74357439 14.4836223 -4.60913086 9.02124023 C-3.8076356 6.71352796 -3.8076356 6.71352796 -4 3 C-7.8701597 3.11057599 -8.96939922 3.96797593 -11.6875 6.8125 C-14.93205714 11.68953872 -15.37206658 17.29236638 -16 23 C-19.875 22.125 -19.875 22.125 -21 21 C-21.38410419 16.46757058 -21.48408723 13.96817446 -19.4375 9.875 C-13.40877336 2.76419422 -9.31630628 -0.29575576 0 0 Z " fill="#0E0E0E" transform="translate(200,64)"/>
<path d="M0 0 C2.125 0.1875 2.125 0.1875 4 1 C6.13399766 5.26799532 4.46349087 10.52324988 3.09765625 14.875 C-0.33349082 23.74746111 -5.11197296 32.25047431 -12.8125 38.0625 C-17.09010126 41.45137588 -18.13196314 45.75962934 -19 51 C-19.19354957 53.72728944 -19.15213629 56.26154671 -19 59 C-18.57589844 58.05898437 -18.15179688 57.11796875 -17.71484375 56.1484375 C-11.06963285 41.84716253 -11.06963285 41.84716253 -5 39 C-1.91097029 38.2919784 -0.24067409 38.45988765 3 39 C5 40.5 5 40.5 6 43 C6.54770539 48.47705394 5.78048877 52.08308771 3.66796875 57.1015625 C2.73044235 59.76611122 2.7906782 62.20904272 3 65 C5.64 64.67 8.28 64.34 11 64 C9 67 9 67 6 68 C-0.36154478 68.45439606 -0.36154478 68.45439606 -2.734375 66.765625 C-4.40507128 64.43490056 -4.17897651 63.29767287 -3.75 60.5 C-3.64171875 59.7265625 -3.5334375 58.953125 -3.421875 58.15625 C-3 56 -3 56 -2 53 C-1.96045766 50.66700175 -1.95598268 48.33291811 -2 46 C-3.65 45.67 -5.3 45.34 -7 45 C-11.02022353 49.45359625 -13.27920379 54.41618449 -15.75 59.8125 C-16.16121094 60.69615234 -16.57242187 61.57980469 -16.99609375 62.49023438 C-18.00353459 64.65740363 -19.00460698 66.82727753 -20 69 C-21.32 69 -22.64 69 -24 69 C-25.53549231 65.92901538 -25.4426817 62.70419623 -25.71875 59.3125 C-25.87136047 56.97731545 -25.87136047 56.97731545 -27 55 C-26.16362379 51.27560564 -24.84361907 47.67743241 -23.625 44.0625 C-23.08178101 42.44879517 -23.08178101 42.44879517 -22.52758789 40.80249023 C-17.93992162 27.52250702 -12.81833879 13.37793322 -3 3 C-2.2265625 2.14341797 -2.2265625 2.14341797 -1.4375 1.26953125 C-0.963125 0.85058594 -0.48875 0.43164062 0 0 Z " fill="#0B0B0B" transform="translate(330,64)"/>
<path d="M0 0 C3.37886909 2.84536344 3.94818455 4.53366097 4.4375 8.9375 C4.2537671 12.85468542 2.80894186 15.53286144 1 19 C0.74803177 22.25100364 0.74803177 22.25100364 1 25 C3.24224658 25.58963678 3.24224658 25.58963678 6 25 C9.78051649 21.65424291 12.59485826 17.40942652 15 13 C16 16 16 16 14.99609375 18.12109375 C11.85647908 22.78723787 9.20985567 26.50361082 4 29 C0.32089734 29.58865643 -1.26282772 29.45364448 -4.4375 27.5 C-6.44343849 24.29049842 -6.09007021 22.5266657 -5.45703125 18.90234375 C-5 17 -5 17 -4 14 C-3.96045766 11.66700175 -3.95598268 9.33291811 -4 7 C-7.01223461 6.47285894 -9.17209945 6.52617012 -11.86328125 8.06640625 C-18.55333014 13.41576398 -22.65683758 20.75134235 -27 28 C-28.65 27.67 -30.3 27.34 -32 27 C-31.67 25.02 -31.34 23.04 -31 21 C-31.66 20.67 -32.32 20.34 -33 20 C-32.66226562 19.52691406 -32.32453125 19.05382812 -31.9765625 18.56640625 C-28.56768638 13.51220552 -26.93230704 9.01129318 -26 3 C-24.0085944 2.61866701 -22.00720923 2.28674418 -20 2 C-19.67 2.33 -19.34 2.66 -19 3 C-19.30300475 5.33746522 -19.63858045 7.67085177 -20 10 C-20 10.99 -20 11.98 -20 13 C-19.55269531 12.46890625 -19.10539062 11.9378125 -18.64453125 11.390625 C-8.06745217 -0.96809426 -8.06745217 -0.96809426 0 0 Z " fill="#111111" transform="translate(407,103)"/>
<path d="M0 0 C2 1.5 2 1.5 3 4 C3.54770539 9.47705394 2.78048877 13.08308771 0.66796875 18.1015625 C-0.26955765 20.76611122 -0.2093218 23.20904272 0 26 C3.96 25.505 3.96 25.505 8 25 C6 28 6 28 3 29 C-3.36154478 29.45439606 -3.36154478 29.45439606 -5.734375 27.765625 C-7.40507128 25.43490056 -7.17897651 24.29767287 -6.75 21.5 C-6.64171875 20.7265625 -6.5334375 19.953125 -6.421875 19.15625 C-6 17 -6 17 -5 14 C-4.96045766 11.66700175 -4.95598268 9.33291811 -5 7 C-6.65 6.67 -8.3 6.34 -10 6 C-14.34307755 10.664787 -16.52826576 16.21573668 -19 22 C-19.99 22 -20.98 22 -22 22 C-19.82897761 13.9443643 -16.30438387 7.56525628 -10.625 1.4375 C-6.75013919 -0.68444759 -4.39159466 -0.56665738 0 0 Z " fill="#0D0D0D" transform="translate(333,103)"/>
<path d="M0 0 C-0.30519306 2.33981347 -0.6424957 4.66790799 -1 7 C-1.16628906 8.19302734 -1.16628906 8.19302734 -1.3359375 9.41015625 C-2.34429693 15.56495389 -4.32081286 19.97271376 -8 25 C-9.65 24.67 -11.3 24.34 -13 24 C-12.67 22.02 -12.34 20.04 -12 18 C-12.66 17.67 -13.32 17.34 -14 17 C-13.66226562 16.52691406 -13.32453125 16.05382812 -12.9765625 15.56640625 C-9.91597755 11.02860255 -8.30225955 7.20019033 -7.45703125 1.78515625 C-7.30621094 1.19605469 -7.15539062 0.60695313 -7 0 C-4.3333581 -1.33332095 -2.83319697 -0.67102033 0 0 Z " fill="#090909" transform="translate(388,106)"/>
<path d="M0 0 C-0.09739637 4.77242207 -0.76705553 7.21687283 -4.125 10.6875 C-8.11607989 14.33367175 -12.39973932 18 -18 18 C-15.98594039 9.94376155 -9.38817928 -1.07293477 0 0 Z " fill="#F6F6F6" transform="translate(371,100)"/>
<path d="M0 0 C0.66 0 1.32 0 2 0 C-0.60607694 11.21854073 -6.18262147 20.61061816 -14 29 C-15 26 -15 26 -13.55859375 22.5234375 C-12.86356469 21.1345537 -12.1557895 19.75199811 -11.4375 18.375 C-10.88920532 17.30173462 -10.88920532 17.30173462 -10.32983398 16.20678711 C-3.98942057 3.98942057 -3.98942057 3.98942057 0 0 Z " fill="#E7E7E7" transform="translate(330,72)"/>
<path d="M0 0 C0.99 0.33 1.98 0.66 3 1 C1.53515625 2.13932292 0.0703125 3.27864583 -1.39453125 4.41796875 C-5.23931022 8.20661956 -6.43725603 12.06079218 -7.1875 17.3125 C-7.34605469 18.38113281 -7.50460938 19.44976562 -7.66796875 20.55078125 C-7.77753906 21.35902344 -7.88710937 22.16726562 -8 23 C-11.875 22.125 -11.875 22.125 -13 21 C-13.38410419 16.46757058 -13.48408723 13.96817446 -11.4375 9.875 C-8.17509655 6.02703695 -4.55813355 2.27906678 0 0 Z " fill="#171717" transform="translate(192,64)"/>
<path d="M0 0 C1.0828125 0.37125 1.0828125 0.37125 2.1875 0.75 C1.4375 5.5 1.4375 5.5 -0.8125 7.75 C-3.9375 7.875 -3.9375 7.875 -6.8125 7.75 C-7.1425 6.43 -7.4725 5.11 -7.8125 3.75 C-3.50480769 -0.31153846 -3.50480769 -0.31153846 0 0 Z " fill="#181818" transform="translate(246.8125,82.25)"/>
<path d="M0 0 C0.6953125 1.62890625 0.6953125 1.62890625 1 4 C-1.84021982 10.412546 -5.63085412 16.44436107 -11 21 C-11.33 20.34 -11.66 19.68 -12 19 C-10.79447174 16.81814267 -9.55140331 14.7668179 -8.1875 12.6875 C-6.17241112 9.58222342 -4.23890756 6.60014236 -2.86328125 3.14453125 C-2 1 -2 1 0 0 Z " fill="#1A1A1A" transform="translate(331,78)"/>
<path d="M0 0 C0.99 0 1.98 0 3 0 C3 2.97 3 5.94 3 9 C2.67 9 2.34 9 2 9 C1.67 7.02 1.34 5.04 1 3 C0.27683594 3.84884766 0.27683594 3.84884766 -0.4609375 4.71484375 C-1.09257812 5.44832031 -1.72421875 6.18179688 -2.375 6.9375 C-3.31472656 8.03384766 -3.31472656 8.03384766 -4.2734375 9.15234375 C-6 11 -6 11 -8 12 C-8.99 11.34 -9.98 10.68 -11 10 C-10.113125 9.46375 -9.22625 8.9275 -8.3125 8.375 C-5.84048277 6.75419625 -4.12438511 5.08114487 -2.3125 2.75 C-1.549375 1.8425 -0.78625 0.935 0 0 Z " fill="#303030" transform="translate(302,120)"/>
<path d="M0 0 C0.66 0 1.32 0 2 0 C1.34580901 5.06998019 -0.8546409 9.41990777 -3 14 C-3.99 14 -4.98 14 -6 14 C-2.90009699 3.90882638 -2.90009699 3.90882638 0 0 Z " fill="#181818" transform="translate(317,111)"/>
<path d="M0 0 C1 3 1 3 -0.0390625 5.15625 C-5.29559748 12.9245283 -5.29559748 12.9245283 -10 15 C-10.99 14.34 -11.98 13.68 -13 13 C-12.29875 12.835 -11.5975 12.67 -10.875 12.5 C-5.76986729 9.8364525 -3.13097918 4.69646877 0 0 Z " fill="#353535" transform="translate(422,116)"/>
<path d="M0 0 C0.33 0.66 0.66 1.32 1 2 C-2.67879602 5.67879602 -7.36242483 7.73513771 -12 10 C-12 9.01 -12 8.02 -12 7 C-10.13671875 5.4296875 -10.13671875 5.4296875 -7.6875 3.875 C-6.48673828 3.09769531 -6.48673828 3.09769531 -5.26171875 2.3046875 C-3 1 -3 1 0 0 Z " fill="#343434" transform="translate(376,123)"/>
<path d="M0 0 C0.99 0.33 1.98 0.66 3 1 C-0.465 3.97 -0.465 3.97 -4 7 C-4.33 6.01 -4.66 5.02 -5 4 C-2.6875 1.9375 -2.6875 1.9375 0 0 Z " fill="#262626" transform="translate(243,124)"/>
<path d="M0 0 C0 1.65 0 3.3 0 5 C-0.66 4.34 -1.32 3.68 -2 3 C-2.99 3.99 -3.98 4.98 -5 6 C-5.99 5.67 -6.98 5.34 -8 5 C-3.32258065 0 -3.32258065 0 0 0 Z " fill="#3F3F3F" transform="translate(274,122)"/>
<path d="M0 0 C0.33 0.99 0.66 1.98 1 3 C-0.9375 6.1875 -0.9375 6.1875 -3 9 C-3.66 8.67 -4.32 8.34 -5 8 C-3.35 5.36 -1.7 2.72 0 0 Z " fill="#262626" transform="translate(422,116)"/>
<path d="M0 0 C-4.75 4 -4.75 4 -7 4 C-7 3.01 -7 2.02 -7 1 C-3.375 -1.125 -3.375 -1.125 0 0 Z " fill="#1E1E1E" transform="translate(268,129)"/>
</svg>
